<?xml version="1.0" standalone="no"?>
<svg version="1.1" id="Layer_1" xmlns="http://www.w3.org/2000/svg" xmlns:xlink="http://www.w3.org/1999/xlink" x="0px" y="0px" width="595.28px" height="595.28px" viewBox="0 0 595.28 595.28" enable-background="new 0 0 595.28 595.28" xml:space="preserve">
<path id="color_x5F_2" fill="#FFFFFFaa" d="M97.49,384.648c0.217-0.205,0.444-0.402,0.654-0.613l-0.172,0.352L97.49,384.648z
	 M86.002,333.001c-0.122-0.047-0.218-0.1-0.301-0.155c-0.584,0.428-1.18,0.842-1.748,1.289c-2.539,1.994-5.006,4.275-7.19,6.801
	c4.694,5.416,5.891,14.3,6.071,21.083c0.152,5.71-0.158,13.008-4.059,17.643c-0.21,0.636-0.368,1.099-0.434,1.29
	c2.93,0.168,7.784,4.635,10.387,7.308C110.805,377.564,109.218,341.853,86.002,333.001z M237.859,236.221
	c0.669,0.188-0.031,0.777-0.31,0.926c-0.591,0.315-1.377,0.51-2.038,0.324c-0.882-0.247-1.68-0.591-2.395-1.003
	c0.883,3.088,5.42,4.794,10.999,5.542c0.418-0.037,0.78-0.006,0.923,0.113c8.929,1.012,20.026-0.271,23.047-2.189
	c0.6-0.382,1.451-0.304,1.995-0.006c2.878-1.088,5.735-2.41,8.14-4.247c1.271-0.971,3.313-2.688,2.807-4.555
	c-0.287-1.058-0.986-1.843-1.836-2.474c-3.151,4.403-10.465,5.873-15.744,5.937c-1.959,0.023-0.131-1.823,1.074-1.838
	c4.49-0.054,10.482-1.333,12.553-5.327c-0.162-0.079-0.326-0.158-0.485-0.234c-0.191-0.091,0.267-0.422,0.877-0.693
	c0.216-0.649,0.341-1.356,0.351-2.134c-5.068,3.188-11.413,4.398-17.186,2.565c-1.595-0.506-2.784-1.242-3.662-2.139
	c-0.814,0.96-1.915,1.568-3.297,1.595c-0.131,0.003-0.289-0.004-0.452-0.026c-5.442,2.316-13.339,2.791-19.993,0.867
	C230.996,231.268,233.545,235.01,237.859,236.221z M271.074,240.67c-0.179,0.066-0.358,0.133-0.537,0.198
	c-0.016,0.031-0.027,0.063-0.048,0.095L271.074,240.67z M307.325,237.342c-4.11-1.869-8.423-3.398-12.698-3.845
	C297.582,234.369,302.568,235.854,307.325,237.342z M348.785,230.355c-2.451-3.555-4.091-7.662-3.524-11.689
	c-5.815,4.151-13.241,2.927-20.388-0.005c-12.971-5.32-27.238-10.125-38.791-1.508c-1.462,1.906-3.141,3.694-5.068,5.308
	c-0.083,0.069-0.198,0.13-0.332,0.184c0.151,1.5-0.018,2.826-0.436,3.998c1.812,0.936,3.74,2.268,3.725,4.451
	c-0.008,1.08-0.635,2.055-1.402,2.879l0.033-0.004c14.533-7.291,29.235,4.322,42.666,9.941c9.952,4.165,32.442,9.926,33.119-6.686
	C354.496,237.184,350.748,233.202,348.785,230.355z M197.041,198.888c-4.748,0.164-9.333,1.261-13.931,2.407
	c-1.728,0.432-2.088-0.871-0.35-1.305c4.771-1.191,9.532-2.3,14.438-2.578c0.337-2.685,0.971-5.396,1.925-8.103
	c-7.072-1.069-15.127-2.098-19.907,4.417c-0.109,0.149-0.297,0.276-0.524,0.379c-0.004,0.021-0.001,0.04-0.007,0.063
	c-1.937,7.756-1.707,15.421-0.049,23.218c1.842,8.661,3.75,17.901,7.454,25.981c3.647,7.957,8.569,15.341,14.3,21.953
	c1.975,2.279,4.003,4.531,6.213,6.59c0.173,0.161,0.35,0.32,0.523,0.481c0.415-1.403,0.961-3.33,1.589-5.737
	c1.599-11.317,4.785-24.287,12.735-30.164C205.272,230.278,195.646,215.224,197.041,198.888z M176.293,193.752
	c0.056-0.037,0.113-0.072,0.175-0.105c0.012-0.018,0.017-0.033,0.03-0.053c0.152-0.207,0.318-0.384,0.475-0.58
	c-0.41,0.228-0.666,0.373-0.666,0.373L176.293,193.752z M280.022,255.697c-0.005,0.179-0.067,0.382-0.226,0.614
	c-6.667,9.776-8.963,22.267-10.291,33.817c-0.512,4.453-0.885,8.92-1.123,13.396c0.108,3.475,0.164,6.817-0.047,9.714
	c0.066,2.474,0.036,4.947-0.521,7.095c-1.4,5.396-11.38,3.527-14.93,2.776c-2.546-0.539-5.169-1.172-7.768-1.945
	c-0.002,2.096-0.026,4.23-0.646,6.248c-0.26,0.847-3.127,1.251-2.877,0.438c0.614-2.003,0.624-4.102,0.624-6.178
	c0-0.47,0.666-0.823,1.359-0.991c-3.884-1.251-7.653-2.863-10.984-5.021c0.158,3.308-0.49,6.731-1.438,9.909
	c-0.258,0.866-2.253,1.289-2.799,0.8l-0.086,0.38c11.779,2.906,23.906,4.549,36.01,4.954c12.396,0.414,24.345-0.253,35.805-5.06
	c0.748-0.426,1.408-0.814,1.933-1.131C307.019,308.207,315.859,236.991,280.022,255.697z M250.346,332.053
	c5.995,0.924,11.428,1.577,13.629,1.334c1.131-0.125,2.643-0.251,4.381-0.381c-0.054-0.001-0.106,0-0.16,0
	C262.244,332.96,256.281,332.646,250.346,332.053z M291.307,330.721c0.933-0.267,1.973-0.67,3.039-1.139
	c-2.894,0.858-5.804,1.539-8.747,2.059C288.049,331.371,290.089,331.068,291.307,330.721z"></path>
<path id="color_x5F_1" d="M242.304,220.83c-0.491-0.219,0.782-0.808,0.86-0.836c0.55-0.2,1.304-0.409,1.868-0.156
	c0.104,0.047,0.194,0.068,0.265,0.081c0.004-0.002,0.006-0.005,0.01-0.007c0.31-0.222,0.584-0.478,0.856-0.742
	c0.472-0.458,1.309-0.646,1.938-0.696c0.271-0.021,1.164,0.027,0.688,0.489C247.154,220.55,244.561,221.838,242.304,220.83z
	 M521.193,403.189c-19.334,0-38.667,0-58,0c-1.138,0-3.066,1.727-1.105,1.727c19.334,0,38.667,0,58,0
	C521.226,404.916,523.154,403.189,521.193,403.189z M460.122,429.042c-12.626,0.001-25.243,0.11-37.79,1.536
	c-1.129,3.244-4.588,6.439-7.425,8.184c-0.043,0.026-0.088,0.05-0.131,0.076c-0.376,0.317-0.754,0.635-1.17,0.947
	c-5.479,4.108-18.887,6.768-22.3,6.768c-3.357,0-16.24-3.212-16.787-3.349l-31.051-11.677c-12.911-4.564-25.771-9.289-38.453-14.459
	l-2.498-0.939c-20.265-0.216-40.378,2.225-60.592,3.197c-18.163,0.875-36.315-0.088-54.433-1.478
	c-31.7-2.431-63.821-7.174-92.758-20.821c3.388,7.052,4.611,15.553-1.921,20.705c-7.615,6.008-14.246-3.938-15.473-10.426
	c-0.885-4.684-1.88-9.367-2.442-14.104c-0.333-2.8-1.143-6.717,0.236-9.374c0.023-0.046,0.058-0.089,0.094-0.131
	c-6.565-7.521-11.169-17.732-8.864-27.868c1.205-5.301,3.666-10.138,6.963-14.364c-3.991-0.592-11.03-8.174-11.795-9.145
	c-5.768-7.311-11.288-20.579-2.375-27.609c7.615-6.008,14.246,3.938,15.473,10.426c0.885,4.684,1.88,9.367,2.442,14.104
	c0.27,2.267,0.832,5.257,0.312,7.728c1.475-1.427,3.041-2.762,4.691-3.985c18.025-13.369,41.563-18.845,63.71-18.381
	c0.235,0.005,0.415,0.038,0.551,0.091c12.104-4.135,21.427-14.793,35.036-14.574c0.703,0.012,1.396,0.047,2.086,0.09
	c-0.944-9.088,7.153-20.904,16.34-21.738c2.213-0.201,4.88-0.109,7.557,0.34c0.08-0.818,0.164-1.679,0.253-2.584
	c-2.836-0.996-6.204-5.55-7.614-7.105c-6.056-6.682-11.32-14.018-15.418-22.061c-4.517-8.864-6.906-19.187-8.837-28.898
	c-1.596-8.023-1.976-15.75,0.021-23.74c0.066-0.269,0.269-0.492,0.533-0.67c0.056-0.037,0.113-0.072,0.175-0.105
	c0.012-0.018,0.017-0.033,0.03-0.053c0.152-0.207,0.318-0.384,0.475-0.58c0.111-0.137,0.222-0.275,0.335-0.407
	c-0.63,0.187-1.322,0.153-1.583-0.256c-4.736-7.417-8.591-18.103-7.847-27.018c0.236-2.829,1.007-5.5,3.829-6.643
	c1.431-0.579,2.695-0.157,3.788,0.689c-0.166-1.79,0.034-3.499,1.073-4.939c2.168-3.006,5.227-2.624,7.701-0.909
	c0.506-1.816,1.484-3.378,3.316-4.369c3.854-2.086,6.514,0.307,7.784,3.53c1.089-1.657,2.726-2.788,5.193-2.857
	c7.201-0.204,3.702,13.178,4.056,18.007c3.074-2.539,6.322-4.313,10.736-2.029c0.194,0.101,0.365,0.286,0.297,0.525
	c-2.455,8.625-10.392,13.381-13.809,21.428c-0.005,0.012-0.014,0.021-0.02,0.032c0.293,0.093,0.372,0.249,0.314,0.43
	c0.013,0.028,0.016,0.06,0.003,0.096c-7.09,19.349,2.409,39.4,21.29,46.894c1.957-1.052,4.166-1.711,6.664-1.877
	c-0.899-1.913-0.757-4.238,0.815-6.609c0.048-0.071,0.128-0.139,0.225-0.203c-5.786-2.23-10.197-6.512-10.422-13.271
	c-1.119,0.158-2.209,0.021-3.166-0.525c-2.517,1.016-5.228,0.917-6.841-1.76c-3.895-6.462,1.697-25.587,10.736-25.878
	c0.609-1.422,1.204-2.937,1.835-4.442c-0.025-0.221,0.081-0.467,0.285-0.682c1.062-2.469,2.26-4.86,3.882-6.686
	c3.894-4.382,8.756-7.749,14.438-9.371c10.219-2.92,24.555-2.959,34.085,2.41c17.104,9.635,21.637,31.453,12.53,47.218
	c6.332-3.156,13.649-3.94,21.066-2.5c5.844,1.135,10.936,3.399,16.401,5.642c7.22,2.962,15.116,5.399,20.46-2.135
	c0.105-0.148,0.285-0.275,0.502-0.378c0.05-0.078,0.089-0.157,0.141-0.235c0.553-0.836,3.484-1.055,2.711,0.113
	c-2.999,4.532-1.803,10.083,1.146,14.358c1.387,2.011,5.65,7.965,8.719,7.027c1.144-0.35,1.689,0.203,1.454,0.772
	c0.13,0.11,0.21,0.26,0.204,0.465c-0.407,13.909-15.998,14.481-26.449,12.297c-6.703-1.401-12.499-3.844-18.513-7.053
	c-2.811-1.499-5.853-3.136-9.015-4.572c-4.11-1.869-8.423-3.398-12.698-3.845c-4.016-0.419-7.994,0.128-11.739,2.238
	c0.351-0.083,0.672-0.105,0.878-0.006c5.268,2.544,10.019,6.618,14.049,10.808c3.729,3.876,7.846,8.362,8.941,13.795
	c0.049,0.24-0.341,0.488-0.849,0.674c1.45,3.149,2.326,6.628,2.896,9.937c0.62,3.603,1.022,7.301,1.244,11.047
	c0.077-0.005,0.148-0.005,0.204,0.006c0.658,0.126,1.302,0.283,1.931,0.471c0.218-0.064,0.435-0.099,0.623-0.08
	c8.339,0.794,18.658,6.803,24.055,14.829c5.629,0,11.257,0,16.885,0c1.961,0-0.013,1.676-1.117,1.676c-4.91,0-9.82,0-14.731,0
	c0.237,0.42,0.463,0.842,0.672,1.271c6.16,6.214,15.92,9.802,23.584,12.232c11.149,3.535,23.051,6.02,34.821,5.859
	c17.388-8.75,18.798-34.794,40.41-37.559c7.2-0.921,21.913,0.009,23.439,9.225c0.97,5.857,1.298,11.673,1.129,17.47
	c9.766,0,19.53,0,29.295,0c1.939,0-0.333,1.328-1.211,1.328c-9.379,0-18.756,0-28.134,0c-0.278,6.578-1.185,13.135-2.525,19.702
	c10.914,2.755,19.255,13.077,27.778,19.677c0.334,0.004,0.58,0.076,0.609,0.25c1.062,6.335-11.604,7.608-15.364,7.148
	c-4.9-0.599-10.116-3.133-14.706-4.807c-0.791-0.289-2.631-0.908-4.99-1.763c-3.385,7.353-8.123,13.154-14.011,18.393
	c0.04,0.085-0.028,0.208-0.271,0.385c-0.313,0.228-0.636,0.438-0.95,0.664c-0.52,0.444-1.03,0.893-1.566,1.33
	c-0.149,0.122-0.435,0.226-0.762,0.298c-14.688,10.229-30.531,18.532-47.129,25.254c-0.465,0.188-1.045,0.229-1.431,0.158
	c4.925,4.163,9.716,8.475,14.538,12.753c6.017,4.015,12.271,8.538,15.866,13.399c0.866,0.675,1.735,1.346,2.615,2.006
	c0.109,0.082,0.157,0.174,0.159,0.269c2.14,1.372,2.968,3.03,2.939,4.759c12.77-1.445,25.609-1.527,38.458-1.528
	C463.118,427.063,461.424,429.042,460.122,429.042z M417.406,434.486c0.745-1.143,1.225-2.307,1.451-3.488
	c-0.121,0.016-0.242,0.027-0.364,0.044c-1.98,0.271-1.247-1.768,0.295-1.979c0.075-0.011,0.151-0.017,0.227-0.027
	c-0.054-1.107-0.319-2.207-0.759-3.298c-0.451-0.414-0.989-0.815-1.65-1.197c-0.029-0.018-0.031-0.044-0.021-0.076
	c-8.45-6.377-16.127-13.674-23.986-20.748c-1.36-0.928-2.597-1.809-3.624-2.624c-9.984-7.913-24.564-19.194-35.965-27.404
	c-7.428-4.786-15.279-8.733-24.072-10.134c-12.891-2.055-26.604-0.57-39.357,1.756c-1.876,0.342-3.824,0.703-5.803,1.096
	c-6.013,1.46-12.335,3.127-17.613,4.864c-4.445,1.774-8.585,4.042-12.021,7.051c-0.006,0.005-0.014,0.009-0.02,0.013
	c-2.164,4.072,0.898,8.329,3.955,11.22c4.223,3.994,9.12,7.344,14.299,10.297l5.857,3.13c5.008,2.527,10.135,4.789,15.058,6.978
	c3.888,1.728,7.8,3.4,11.731,5.027c0.01,0,0.021,0,0.03,0c0.331,0.005,0.429,0.071,0.387,0.17
	c11.591,4.784,23.347,9.175,35.149,13.401c10.934,3.915,22.013,7.473,32.878,11.573c11.485,4.335,24.145,6.165,35.645,0.557
	C411.42,439.561,415,437.205,417.406,434.486z M313.836,360.901c-2.822,0.019-5.313,0.163-7.382,0.428
	C308.914,361.113,311.377,360.969,313.836,360.901z M338.529,364.086c-0.842-0.443-1.529-0.751-2.021-0.885
	c-1.218-0.332-2.708-0.642-4.38-0.92C334.32,362.756,336.451,363.363,338.529,364.086z M451.499,348.484
	c-3.245-1.2-7.216-2.77-10.817-4.518c-4.35,2.967-9.368,5.175-14.067,7.475c-8.243,4.033-16.574,7.893-24.968,11.602
	c-8.66,3.827-17.375,7.582-26.257,10.868c-3.836,1.419-7.966,3.182-12.114,3.985c3.137,2.211,6.248,4.469,9.385,6.663
	c4.7,3.289,9.166,6.841,13.523,10.511c0.06-0.144,0.297-0.324,0.814-0.533c16.495-6.68,32.207-15.015,46.758-25.253
	c6.931-5.677,12.35-11.808,16.111-20.015C450.053,348.863,450.807,348.585,451.499,348.484z M457.369,330.077
	c-6.664-1.356-17.371-0.548-23.337,3.519c0.011,0.021,0.013,0.044-0.004,0.07c-3.329,5.248,16.65,12.289,19.429,13.379
	c4.627,1.814,9.303,3.5,14.014,5.086c1.488,0.5,2.979,0.993,4.47,1.482c3.696,1.213,13.173,1.041,12.979-3.946
	c-4.88-3.774-9.08-8.356-14.146-11.892C466.639,334.889,462.457,331.113,457.369,330.077z M318.405,285.661
	c3.662,2.837,6.173,6.941,6.915,11.554c2.443,0,4.888,0,7.332,0c-0.324-0.511-0.636-1.029-0.914-1.57
	c-0.021-0.042-0.012-0.09,0.012-0.139C328.235,291.158,323.457,287.641,318.405,285.661z M310.137,283.707
	c0.59,13.59-1.294,27.744-4.958,40.471c7.159-3.991,15.132-10.781,16.856-18.705c0.488-2.242,0.579-4.457,0.35-6.582
	c-0.102,0-0.202,0-0.303,0c-1.424,0-0.772-0.881,0.113-1.365C321.037,291.127,316.704,285.801,310.137,283.707z M264.281,331.702
	c12.396,0.414,24.345-0.253,35.805-5.06c0.615-0.258,1.229-0.537,1.843-0.819c0.03-0.1,0.06-0.208,0.09-0.312
	c5-17.305,13.841-88.521-21.996-69.814c-0.005,0.179-0.067,0.382-0.226,0.614c-6.667,9.776-8.963,22.267-10.291,33.817
	c-0.512,4.453-0.885,8.92-1.123,13.396c-0.062,1.155-0.12,2.312-0.163,3.468c-0.071,1.937,0.059,4.092,0.116,6.246
	c0.066,2.474,0.036,4.947-0.521,7.095c-1.4,5.396-11.38,3.527-14.93,2.776c-2.546-0.539-5.169-1.172-7.768-1.945
	c-0.002,2.096-0.026,4.23-0.646,6.248c-0.26,0.847-3.127,1.251-2.877,0.438c0.614-2.003,0.624-4.102,0.624-6.178
	c0-0.47,0.666-0.823,1.359-0.991c-3.884-1.251-7.653-2.863-10.984-5.021c0.158,3.308-0.49,6.731-1.438,9.909
	c-0.258,0.866-2.253,1.289-2.799,0.8c-0.124-0.111-0.174-0.269-0.111-0.479c3.108-10.43,0.813-22.346-12.424-22.125
	c-1.31,0.022-8.46-0.184-7.076,2.873c0.648,1.43,1.961,2.565,3.254,3.401c3.396,2.196,7.215,3.66,11.262,4.003
	c1.962,0.166,0.114,1.888-1.09,1.785c-2.452-0.207-5.33-0.79-8.023-1.813c-1.363-0.322-3.127-0.566-3.41,0.947
	c-0.242,1.287,0.359,2.664,1.061,3.718c2.129,3.2,5.625,5.325,9.351,6.097c0.121,0.025,0.185,0.068,0.227,0.117
	c2.282,0.671,4.582,1.285,6.896,1.855C240.051,329.654,252.178,331.297,264.281,331.702z M208.579,314.132
	c0.66-0.735,1.667-1.163,2.813-1.372c-1.824-0.987-3.436-2.222-4.584-3.744c-2.807-3.723,0.795-5.828,4.297-6.579
	c0.002-0.001,0.004-0.001,0.006-0.001c0.005-2.84,0.26-6.357-1.107-8.938c-1.309-2.471-5.663-4.869-8.485-3.959
	c-3.832,1.234-5.782,8.476-5.329,12.131c0.061,0.488-0.477,0.889-1.104,1.099C200.578,305.032,205.203,308.778,208.579,314.132z
	 M281.189,236.773c-0.625,0.283-1.619,0.238-1.99-0.069c-2.487,1.651-5.307,2.913-8.125,3.966c-0.179,0.066-0.358,0.133-0.537,0.198
	c-0.016,0.031-0.027,0.063-0.048,0.095c-0.091,0.137-0.235,0.275-0.45,0.412c-3.529,2.244-15.807,4.023-25.858,3.033
	c-0.729,1.324-1.655,2.607-2.345,3.826c-2.439,4.313-4.764,8.697-6.799,13.216c-1.686,3.741-3.209,7.546-4.543,11.405
	c10.771,4.019,22.041,6.399,33.781,6.517c1.477,0.015-1.176,1.294-1.852,1.287c-11.271-0.112-22.137-2.289-32.547-5.979
	c-3.034,9.256-4.91,18.833-5.063,28.674c1.745,0.745,3.302,1.791,4.483,3.229c1.708,2.076,2.65,4.428,3.063,6.894
	c0.554-0.236,1.214-0.299,1.633-0.009c5.923,4.099,13.916,6.556,20.954,7.754c1.805,0.308,9.813,1.996,10.064-1.169
	c0.303-3.804,0.083-7.688,0.225-11.506c0.652-17.624,1.884-38.037,12.139-53.076c0.188-0.274,0.499-0.453,0.846-0.544
	c6.055-3.176,14.498-6.271,20.898-2.167c0.495,0.317,0.958,0.667,1.406,1.03c-1.854-2.676-4.174-5.095-6.357-7.201
	C290.291,242.847,286.063,239.164,281.189,236.773z M235.898,214.116c0.93,1.182,1.838,1.589,2.701,1.48
	c-0.211-0.241-0.41-0.512-0.594-0.817c-3.162-5.248-0.07-18.856,6.045-23.941C237.373,189.472,232.277,209.512,235.898,214.116z
	 M245.094,192.568c-4.413,4.811-6.926,17.79-4.16,21.482c2.189-2.617,3.768-7.753,4.068-9.448
	C245.678,200.791,246.218,196.392,245.094,192.568z M242.15,215.22c3.973,2.512,7.349-7.659,7.9-10.468
	c-0.213-0.118-0.325-0.31-0.104-0.597c0.065-0.086,0.159-0.151,0.246-0.222c0.681-4.011,1.144-8.579-0.354-12.414
	c-0.057-0.146-0.023-0.291,0.065-0.428c-0.755-0.341-1.493-0.404-2.205-0.23c2.351,6.188,0.843,16.148-2.735,21.555
	C244.316,213.393,243.314,214.39,242.15,215.22z M253.401,203.391c1.409,0,2.819,0,4.229,0c0.468-6.42-1.221-12.807-7.054-16.875
	c-5.053-3.523-11.069-4.812-17.16-5.201c-0.762,1.328-1.728,2.549-2.354,3.947c-0.134,0.298-0.538,0.53-0.999,0.664
	c0.054,0.026,0.106,0.043,0.16,0.071c0.384,0.202,0.355,0.464,0.119,0.711c0.074,0.062,0.138,0.133,0.174,0.226
	c1.493,3.823,1.482,9.127,0.406,13.906c0.674,0.048,1.346,0.113,2.016,0.213c2.245-7.385,7.281-14.071,13.5-11.663
	c1.834-0.736,3.855-0.714,6.006,0.416c0.384,0.202,0.355,0.464,0.119,0.711c0.074,0.062,0.138,0.133,0.174,0.226
	C254.1,194.232,254.21,198.958,253.401,203.391z M227.868,200.74c0.734-4.15,1.323-8.998-0.251-13.029
	c-0.057-0.146-0.023-0.291,0.065-0.428c-0.755-0.342-1.494-0.404-2.207-0.23c1.477,3.888,1.431,9.259,0.305,14.06
	c0.529-0.236,1.137-0.377,1.695-0.377C227.607,200.735,227.737,200.74,227.868,200.74z M222.871,188.761
	c-4.411,4.812-6.922,17.786-4.159,21.48c2.189-2.618,3.767-7.753,4.067-9.448C223.455,196.982,223.995,192.584,222.871,188.761z
	 M233.227,227.225c-2.23,4.043,0.318,7.785,4.633,8.996c0.669,0.188-0.031,0.777-0.31,0.926c-0.591,0.315-1.377,0.51-2.038,0.324
	c-0.882-0.247-1.68-0.591-2.395-1.003c0.883,3.088,5.42,4.794,10.999,5.542c0.418-0.037,0.78-0.006,0.923,0.113
	c8.929,1.012,20.026-0.271,23.047-2.189c0.6-0.382,1.451-0.304,1.995-0.006c2.878-1.088,5.735-2.41,8.14-4.247
	c1.271-0.971,3.313-2.688,2.807-4.555c-0.287-1.058-0.986-1.843-1.836-2.474c-3.151,4.403-10.465,5.873-15.744,5.937
	c-1.959,0.023-0.131-1.823,1.074-1.838c4.49-0.054,10.482-1.333,12.553-5.327c-0.162-0.079-0.326-0.158-0.485-0.234
	c-0.191-0.091,0.267-0.422,0.877-0.693c0.216-0.649,0.341-1.356,0.351-2.134c-5.068,3.188-11.413,4.398-17.186,2.565
	c-1.595-0.506-2.784-1.242-3.662-2.139c-0.814,0.96-1.915,1.568-3.297,1.595c-0.131,0.003-0.289-0.004-0.452-0.026
	C247.777,228.674,239.881,229.148,233.227,227.225z M325.268,243.91c9.952,4.165,32.442,9.926,33.119-6.686
	c-3.891-0.041-7.639-4.022-9.602-6.869c-2.451-3.555-4.091-7.662-3.524-11.689c-5.815,4.151-13.241,2.927-20.388-0.005
	c-12.971-5.32-27.238-10.125-38.791-1.508c-1.462,1.906-3.141,3.694-5.068,5.308c-0.083,0.069-0.198,0.13-0.332,0.184
	c0.151,1.5-0.018,2.826-0.436,3.998c1.812,0.936,3.74,2.268,3.725,4.451c-0.008,1.08-0.635,2.055-1.402,2.879
	c-0.006,0.007-0.011,0.014-0.016,0.02c0.016-0.009,0.032-0.016,0.049-0.023C297.135,226.678,311.837,238.291,325.268,243.91z
	 M226.87,179.393c11.767-0.197,27.265,1.072,32.263,13.503c1.58,3.933,1.759,7.287,1.332,10.653
	c0.208,0.119,0.314,0.309,0.097,0.593c-0.055,0.071-0.134,0.123-0.203,0.184c-0.446,2.915-1.299,5.873-2.056,9.255
	c-0.92,4.107-1.521,9.146,3.185,11.23c5.809,2.574,12.642,0.652,17.188-3.512c0.102-0.094,0.239-0.171,0.397-0.234
	c0.039-0.117,0.111-0.246,0.239-0.393c1.455-1.673,3.035-3.135,4.716-4.394c10.007-13.844,8.096-34.599-6.1-45.719
	c-8.456-6.623-21.573-8.224-31.917-6.164c-6.489,1.293-13.776,4.664-17.044,10.784C228.227,176.564,227.542,177.976,226.87,179.393z
	 M224.002,185.502c0.071,0.025,0.143,0.052,0.214,0.08c1.282-0.516,2.655-0.654,4.101-0.307c0.012-0.039,0.018-0.074,0.036-0.115
	c0.629-1.405,1.601-2.63,2.364-3.964c-1.575-0.039-3.146-0.034-4.698-0.002C225.351,182.632,224.685,184.07,224.002,185.502z
	 M216.379,211.787c-0.211-0.24-0.41-0.511-0.594-0.816c-3.098-5.142-0.189-18.295,5.68-23.609c-0.496,0.015-0.879-0.092-0.867-0.348
	c-6.049,1.093-10.314,18.978-6.92,23.294C214.607,211.489,215.516,211.896,216.379,211.787z M220.775,211.766
	c0.285-0.537,1.588-0.841,2.326-0.807c2.166-1.914,3.852-6.582,4.51-9.08c-0.668-0.025-1.34-0.039-2.018-0.04
	c-0.668,2.563-1.637,4.931-2.853,6.768c-0.646,0.977-1.648,1.974-2.813,2.804C220.214,211.591,220.496,211.709,220.775,211.766z
	 M251.711,225.818c0.151-0.066,0.391-0.117,0.655-0.15c0-0.038-0.008-0.071-0.001-0.113c0.105-0.662,1.019-1.092,1.615-1.103
	c0.082-0.002,0.166-0.009,0.249-0.015c0.001-0.01,0.07-0.031,0.101-0.032c0.293-0.302,0.439-0.57,0.663-1.01
	c0.13-0.254,0.366-0.435,0.632-0.575c-1.645-3.614-0.382-8.598,0.785-12.69c0.484-1.698,0.849-3.455,1.068-5.224
	c-1.465,0-2.93,0-4.395,0c-0.666,2.848-1.71,5.496-3.043,7.51c-1.923,2.903-6.93,6.033-10.271,4.123
	c-2.517,1.016-5.229,0.917-6.842-1.76c-1.611-2.676-1.594-7.521-0.384-12.305c-0.077-0.007-0.16,0-0.232-0.018
	c-0.571-0.137-1.142-0.242-1.712-0.325c-0.666,2.45-1.609,4.708-2.779,6.475c-0.345,0.521-0.797,1.046-1.313,1.552
	c0.164,0.099,0.25,0.25,0.198,0.468c-0.202,0.848-0.408,1.854,0.042,2.664c0.385,0.694,1.216,0.996,1.936,1.187
	c0.572,0.151,0.752,0.588,0.271,1.01c-0.496,0.435-1.396,0.722-2.049,0.549c-1.145-0.303-2.372-0.736-2.979-1.83
	c-0.077-0.14-0.137-0.284-0.187-0.432C225.404,225.464,241.967,230.08,251.711,225.818z M229.98,235.313
	c-9.67,0.496-13.936,12.31-15.996,20.316c-0.793,3.081-1.422,6.188-1.946,9.314c0.487-0.142,0.971-0.195,1.245-0.044
	c4.818,2.66,9.754,5.021,14.801,7.032c1.074-2.979,2.262-5.919,3.563-8.808c2.214-4.912,4.66-9.708,7.327-14.389
	c0.832-1.461,2.001-3.023,2.757-4.633C234.742,243.038,229.42,240.403,229.98,235.313z M178.492,191.363
	c5.526-5.206,13.364-4.959,20.791-3.951c3.381-7.111,10.928-11.786,13.111-19.453c1.1-3.861-5.65,0.209-6.492,0.945
	c-1.227,1.075-2.399,2.221-3.653,3.265c-1.957,1.63-3.946,2.966-6.42,3.653c-1.739,0.483-2.126-0.983-0.393-1.465
	c2.733-0.76,5.033-2.856,7.318-4.897c-0.5,0.064-0.912,0.028-0.952-0.173c-0.536-2.692-0.048-5.577,0.109-8.287
	c0.141-2.42,0.742-6.159-0.643-8.35c-2.186-3.459-3.719,0.125-4.277,2.454c-0.566,2.362-0.84,4.788-0.861,7.216
	c-0.008,0.787-2.901,1.171-2.898,0.777c0.018-1.892,0.116-4.134,0.549-6.233c-0.301-0.052-0.518-0.188-0.549-0.433
	c-0.248-1.947-2.674-9.379-5.319-5.108c-0.816,1.318-1.149,2.877-1.243,4.519c0.16,0.236,0.131,0.475-0.023,0.686
	c-0.051,2.619,0.408,5.388,0.436,7.697c0.013,1.107-2.888,1.66-2.898,0.777c-0.027-2.366-0.48-5.388-0.375-8.227
	c-1.068-1.322-4.065-4.498-4.915-1.355c-0.433,1.597-0.407,3.22-0.154,4.851c0.363,2.342,1.229,4.694,1.351,7.062
	c0.061,1.203-2.845,1.825-2.898,0.777c-0.045-0.878-0.229-1.834-0.459-2.827c-0.184-0.058-0.337-0.152-0.43-0.301
	c-1.784-2.848-4.983-6.292-5.438-0.84c-0.256,3.064,0.094,6.158,0.742,9.159c1.339,6.198,3.36,12.484,6.794,17.86
	C178.443,191.229,178.473,191.297,178.492,191.363z M207.926,273.104c0.217-2.038,0.475-4.212,0.79-6.449
	c1.599-11.317,4.785-24.287,12.735-30.164c-16.179-6.212-25.805-21.267-24.41-37.603c-4.748,0.164-9.333,1.261-13.931,2.407
	c-1.728,0.432-2.088-0.871-0.35-1.305c4.771-1.191,9.532-2.3,14.438-2.578c0.337-2.685,0.971-5.396,1.925-8.103
	c-7.072-1.069-15.127-2.098-19.907,4.417c-0.109,0.149-0.297,0.276-0.524,0.379c-0.004,0.021-0.001,0.04-0.007,0.063
	c-1.937,7.756-1.707,15.421-0.049,23.218c1.842,8.661,3.75,17.901,7.454,25.981c3.647,7.957,8.569,15.341,14.3,21.953
	c1.975,2.279,4.003,4.531,6.213,6.59c0.173,0.161,0.35,0.32,0.523,0.481C207.389,272.635,207.656,272.869,207.926,273.104z
	 M210.169,279.429c3.354,0.911,6.473,2.446,8.429,4.765c3.115,3.693,3.604,8.632,3.665,13.413
	c0.726-8.121,2.534-16.107,5.171-23.827c-5.345-2.03-10.566-4.454-15.658-7.202c-0.656,4.202-1.139,8.434-1.563,12.674
	C210.207,279.313,210.188,279.371,210.169,279.429z M186.422,299.998c0.025,0.172-0.031,0.331-0.135,0.477
	c2.438,0.32,4.768,0.861,6.977,1.617c-0.448-5.029,2.443-12.933,7.861-14.021c3.266-0.656,7.919,0.118,10.338,2.623
	c2.82,2.92,2.535,7.383,2.545,11.153c0,0.052-0.012,0.101-0.023,0.149c1.728-0.171,3.563-0.189,5.381,0.003
	c0.017-4.848,0.453-11.356-2.519-15.466c-3.262-4.512-10.304-6.624-15.683-6.535C192.632,280.14,185.193,291.687,186.422,299.998z
	 M87.936,331.269c15.988,6.243,22.064,23.823,18.16,38.646c0.228,0.029,0.425,0.102,0.557,0.234
	c2.044,2.062,5.896,2.762,8.573,3.473c5.218,1.385,10.521,2.447,15.831,3.405c15.436,2.787,31.01,4.842,46.588,6.643
	c15.976,1.847,31.988,3.44,48.031,4.577c9.342,0.662,19.009,1.659,28.43,1.148c-3.071-3.278-5.006-7.146-2.582-10.961
	c-0.1-0.153-0.04-0.366,0.279-0.646c0.645-0.563,1.316-1.097,2.003-1.614c0.158-0.169,0.323-0.334,0.5-0.493
	c0.911-0.82,2.319-1.649,4.083-2.477c8.333-4.685,18.493-7.021,27.425-8.788c3.035-0.601,6.122-1.16,9.238-1.655
	c0.62-0.14,1.228-0.275,1.805-0.405c2.753-0.617,4.929-1.105,6.329-1.456c2.627-0.656,6.52-1.004,11.256-1.004
	c7.966,0,17.357,0.984,22.331,2.341c1.378,0.376,4.05,1.914,7.479,4.161c5.907,2.719,11.446,6.239,16.869,9.995
	c5.295-0.465,10.795-3.027,15.642-4.897c8.33-3.215,16.551-6.716,24.706-10.349c8.039-3.581,16.037-7.261,23.935-11.144
	c4.438-2.183,9.173-4.251,13.299-7.037c-5.223-2.759-9.071-5.844-7.644-8.575c-0.391-0.248-0.477-0.685,0.195-1.229
	c6.148-4.989,17.76-6.287,25.456-5.249c1.26-6.35,2.155-12.763,2.405-19.195c-1.026,0-2.053,0-3.08,0
	c-1.939,0,0.333-1.328,1.211-1.328c0.636,0,1.271,0,1.907,0c0.128-5.096-0.153-10.201-0.997-15.293
	c-0.981-5.925-5.159-8.44-10.82-9.56c-6.115-1.21-13.379-1.628-18.689,2.217c-12.313,8.915-15.398,25.878-28.918,33.417
	c0.037-0.002,0.074-0.002,0.11-0.004c1.918-0.099-0.483,1.137-1.252,1.176c-13.011,0.667-26.486-1.754-38.814-5.819
	c-6.234-2.056-13.666-4.657-19.604-8.767c0.275,1.301,0.411,2.621,0.37,3.957c-0.426,14.021-13.181,23.18-24.84,28.532
	c-12.191,5.597-26.432,7.395-39.682,8.315c-12.828,0.892-26.388,1.294-38.953-1.916c-1.632-0.416,0.883-1.777,1.781-1.547
	c10.915,2.787,22.67,2.752,33.849,2.129c12.465-0.694,25.625-2.004,37.429-6.322c10.874-3.978,25.113-12.252,27.139-24.787
	c0.73-4.522-0.325-9.051-2.531-13.15c-0.309-0.353-0.614-0.707-0.9-1.076c-2.774,0-5.548,0-8.322,0
	c0.13,1.971-0.059,4.013-0.614,6.072c-2.473,9.153-11.839,16.841-20.179,20.729c-0.268,0.412-1.041,0.694-1.715,0.762
	c-2.881,1.233-5.76,2.271-8.654,3.128c-2.894,0.858-5.804,1.539-8.747,2.059c-5.585,0.986-11.29,1.402-17.243,1.365
	c-0.054-0.001-0.106,0-0.16,0c-5.951-0.046-11.914-0.36-17.85-0.953c-10.624-1.061-21.16-3.032-31.392-6.039
	c-0.053-0.007-0.106-0.005-0.158-0.016c-3.291-0.682-7.982-3.027-10.009-6.397c-0.389-0.026-0.717-0.161-0.85-0.458
	c-5.677-12.75-20.047-20.52-33.968-16.514c-10.743,3.092-18.823,11.573-29.775,14.33c-0.878,0.221-1.417-0.05-1.515-0.43
	C124.099,316.463,103.615,320.744,87.936,331.269z M79.12,381.951c-0.118,0.315-0.557,0.563-1.058,0.715
	c0.059,0.066,0.114,0.135,0.173,0.201C78.5,382.808,78.874,382.609,79.12,381.951z M86.002,333.001
	c-0.122-0.047-0.218-0.1-0.301-0.155c-0.584,0.428-1.18,0.842-1.748,1.289c-2.539,1.994-5.006,4.275-7.19,6.801
	c4.694,5.416,5.891,14.3,6.071,21.083c0.152,5.71-0.158,13.008-4.059,17.643c-0.446,0.53-0.95,1.017-1.494,1.471
	c0.313-0.146,0.668-0.204,1.061-0.181c2.93,0.168,7.784,4.635,10.387,7.308C110.805,377.564,109.218,341.853,86.002,333.001z
	 M74.867,339.611c0.06-0.066,0.118-0.134,0.177-0.2c-0.691,0.075-1.272-0.037-1.092-0.386c2.184-4.211-0.086-11.662-0.885-16.039
	c-0.938-5.141-1.2-12.431-5.429-16.084c-6.678-5.771-11.063,3.3-10.113,9.153c0.638,3.929,2.009,7.517,3.912,11.003
	c1.867,3.421,4.494,6.421,7.484,8.914c1.145,0.955,2.302,1.927,3.57,2.719c2.832,1.77,1.063-0.08,0.36,1.801
	C73.045,339.978,74.086,339.642,74.867,339.611z M75.543,379.539c5.053-4.568,4.818-14.377,4.131-20.474
	c-0.588-5.203-1.574-11.392-4.766-15.824c-3.027,4.054-5.247,8.654-5.864,13.701C68.021,365.311,70.727,372.977,75.543,379.539z
	 M90.188,394.788c-0.499-0.255-1-0.506-1.498-0.767c-0.129-0.068,0.201-0.316,0.681-0.555c-0.618-0.938-1.288-1.843-2.01-2.706
	c-0.932-0.019-1.668-0.694-1.12-1.276c-0.998-1.072-2.068-2.078-3.189-3.014c-1.145-0.955-2.302-1.927-3.57-2.719
	c-0.492-0.308-0.838-0.501-1.082-0.629c0.148,0.395-0.193,0.779-0.698,1.032c-1.61,4.299,0.45,11.169,1.205,15.302
	c0.938,5.141,1.2,12.431,5.429,16.084c6.678,5.771,11.063-3.3,10.113-9.153c-0.638-3.929-2.009-7.517-3.912-11.003
	C90.425,395.183,90.303,394.986,90.188,394.788z M299.476,414.984l-3.011-1.132l-2.766-1.478
	c-10.824-4.606-21.589-9.675-31.246-16.255c-0.776-0.529-1.697-1.158-2.678-1.871l-2.111-1.128l-0.057-0.061
	c-0.07-0.075-0.604-0.655-1.314-1.564c-0.209-0.184-0.416-0.369-0.622-0.557c-10.281,0.805-20.868-0.254-31.107-0.992
	c-16.786-1.211-33.546-2.857-50.259-4.839c-15.609-1.85-31.238-3.866-46.692-6.771c-5.468-1.028-10.979-2.09-16.31-3.707
	c-1.893-0.574-4.17-1.154-5.961-2.265c-1.503,4.335-3.9,8.351-7.197,11.669c-0.21,0.211-0.438,0.408-0.654,0.613
	c-2.117,2.003-4.571,3.732-7.38,5.088c0.15,0.17,0.264,0.304,0.329,0.387c0.885,1.122,1.764,2.386,2.586,3.744
	c31.348,15.984,66.852,20.906,101.588,23.207c18.791,1.245,37.414,1.942,56.229,0.682
	C267.049,416.669,283.23,415.118,299.476,414.984z M393.461,445.367c-1.208,0.068-2.417,0.09-3.621,0.064
	c0.594,0.076,1.098,0.121,1.467,0.121C391.807,445.553,392.548,445.488,393.461,445.367z M399.244,403.381
	c-0.887,0-3.147,1.344-1.207,1.344c9.333,0,18.666,0,28,0c0.887,0,3.147-1.344,1.207-1.344
	C417.911,403.381,408.578,403.381,399.244,403.381z M547.217,267.277c-4.883,0-9.766,0-14.647,0
	c4.405-6.715,5.433-14.424-3.017-19.467c-4.039-2.41-9.232-3.682-14.393-3.73c0.364-0.231,0.615-0.547,0.584-0.916
	c-1.048-12.308-9.813-23.981-22.629-25.592c-2.894-0.363-5.59-0.195-8.07,0.414c-7.012-19.217-33.799-16.676-43.176-3.978
	c-8.37-2.317-17.156-1.807-24.662,3.028c-7.896,5.086-10.668,14.186-10.043,23.078c-7.408-1.609-15.249-1.201-22.02,2.483
	c-9.875,5.374-10.362,16.248-6.758,25.723c-11.82,0-23.642,0-35.462,0c-1.295,0-3,1.967-1.041,1.967c12.577,0,25.155,0,37.732,0
	c0.844,0,1.854-0.833,1.92-1.415c0.102-0.17,0.132-0.358,0.052-0.555c-3.453-8.479-4.096-18.247,4.289-23.949
	c6.099-4.148,14.328-3.996,21.508-2.054c0.019,0.142,0.03,0.285,0.051,0.427c0.086,0.583,1.22,0.553,2.045,0.197
	c1.271,0.417,2.502,0.879,3.662,1.385c1.001,0.436,3.606-0.96,2.27-1.543c-1.684-0.733-3.43-1.367-5.213-1.894
	c-0.906-7.786,0.686-15.444,6.45-21.134c6.405-6.32,15.973-6.503,24.093-4.02c-2.824,4.924-3.141,11.117,0.832,18.025
	c0.401,0.697,3.115-0.398,2.898-0.777c-3.406-5.922-3.669-12.011-1.313-17.049c0.927-0.324,1.789-0.957,1.021-1.22
	c-0.11-0.038-0.223-0.069-0.333-0.105c2.107-3.617,5.653-6.585,10.427-8.394c11.734-4.447,23.807,1.461,27.922,12.701
	c-7.184,2.956-12.169,9.892-14.273,18.207c-0.301,1.186,2.637,0.764,2.91-0.316c1.85-7.31,5.988-13.459,11.925-16.126
	c0.047,0.167,0.099,0.331,0.142,0.501c0.157,0.613,3.059-0.146,2.898-0.777c-0.061-0.236-0.131-0.461-0.197-0.691
	c2.851-0.682,6.033-0.623,9.51,0.384c10.506,3.041,16.851,13.437,17.736,23.845c0.006,0.073,0.027,0.137,0.058,0.194
	c-3.815,0.233-7.518,1.147-10.614,2.81c-1.744,0.937-0.162,2.357,1.254,1.598c6.834-3.668,16.234-2.846,23.039,0.491
	c8.652,4.243,7.352,11.901,2.992,18.284c-1.009,0.224-2.443,1.371-1.096,1.496c-0.512,0.654-1.05,1.291-1.609,1.902
	c-1.223,1.336,1.573,1.68,2.402,0.773c0.783-0.855,1.522-1.746,2.208-2.662c4.862,0,9.724,0,14.585,0
	C547.087,268.828,549.172,267.277,547.217,267.277z M95.82,276.637c0.063-0.007,0.125-0.012,0.188-0.02
	c0.718-0.086,3.159-1.356,1.266-1.129c-0.4,0.048-0.802,0.082-1.202,0.128c-2.517-6.147-2.825-12.691,1.829-17.9
	c4.969-5.561,13.169-4.828,19.41-1.955c-0.016,0.048-0.036,0.092-0.052,0.14c-0.396,1.209,1.208,1.439,2.155,0.946
	c0.037,0.022,0.078,0.042,0.115,0.063c1.141,0.67,3.655-0.871,2.223-1.715c-0.366-0.215-0.741-0.42-1.118-0.621
	c7.242-17.286,34.635-19.273,46.679-5.89c0.04,0.044,0.088,0.079,0.135,0.115c-6.006,4.526-10.061,10.884-10.271,19.372
	c-0.037,1.482,2.898,1.023,2.93-0.238c0.292-11.736,8.176-19.205,18.792-22.922c1.717-0.602,1.245-2.533-0.514-1.918
	c-3.083,1.079-5.994,2.449-8.628,4.109c-13.198-14.3-43.102-12.137-51.514,6.233c-6.174-2.616-13.329-3.153-19.251,0.56
	c-7.88,4.941-9.166,13.75-5.987,21.945c-14.428,1.447-28.922,1.534-43.42,1.535c-0.587,0-3.295,1.152-1.887,1.152
	c15.31-0.001,30.62-0.098,45.852-1.75C94.168,277.314,95.269,277.133,95.82,276.637z" fill="#FFF"></path>
</svg>